<svg xmlns="http://www.w3.org/2000/svg" viewBox="0 0 263.4 120.78"><defs><style>.cls-1{fill:#fff;}</style></defs><title>Asset 1</title><g id="Layer_2" data-name="Layer 2"><g id="Layer_1-2" data-name="Layer 1"><path class="cls-1" d="M0,55.31A28.93,28.93,0,0,1,2.29,43.84,29.49,29.49,0,0,1,17.92,28.11a28.8,28.8,0,0,1,11.55-2.34,28.07,28.07,0,0,1,10.82,2.08,29.77,29.77,0,0,1,9,5.74,30.13,30.13,0,0,1,8.93-5.74A27.85,27.85,0,0,1,69,25.77a29,29,0,0,1,11.58,2.34A29.65,29.65,0,0,1,96.32,43.84a28.62,28.62,0,0,1,2.33,11.47v55.63a9.19,9.19,0,0,1-.79,3.84,10,10,0,0,1-2.11,3,10.24,10.24,0,0,1-3.12,2,9.94,9.94,0,0,1-3.8.75,9.91,9.91,0,0,1-7-2.8,9.82,9.82,0,0,1-2.12-3,9.35,9.35,0,0,1-.79-3.84V56a9,9,0,0,0-.82-3.8,10.73,10.73,0,0,0-2.19-3.15A9.31,9.31,0,0,0,72.7,47a10.33,10.33,0,0,0-3.87-.75A9.67,9.67,0,0,0,65,47,9,9,0,0,0,62,49a10.58,10.58,0,0,0-2,3.08,10.3,10.3,0,0,0-.82,3.76V68.5a9.5,9.5,0,0,1-.76,3.84,9.84,9.84,0,0,1-2.11,3.12,9.78,9.78,0,0,1-13.91,0,9.84,9.84,0,0,1-2.11-3.12,9.5,9.5,0,0,1-.76-3.84V56.17a10.27,10.27,0,0,0-.75-3.91,9.84,9.84,0,0,0-2-3.15A9.57,9.57,0,0,0,33.59,47a10.06,10.06,0,0,0-4-.78,9.89,9.89,0,0,0-3.87.75,9.55,9.55,0,0,0-3.16,2.12,10.42,10.42,0,0,0-2.15,3.15,9.44,9.44,0,0,0-.79,3.8v54.91a9.67,9.67,0,0,1-.75,3.84,9.17,9.17,0,0,1-2.11,3,10.56,10.56,0,0,1-3.16,2,9.9,9.9,0,0,1-3.8.75A9.8,9.8,0,0,1,6,119.88a10.62,10.62,0,0,1-3.12-2,9.19,9.19,0,0,1-2.12-3A9.67,9.67,0,0,1,0,110.94Z"/><path class="cls-1" d="M227.63,90.37l-19.22,27.1a7.32,7.32,0,0,1-2.94,2.51,8.74,8.74,0,0,1-3.72.79A9.72,9.72,0,0,1,198,120a10,10,0,0,1-5.31-5.16,8.92,8.92,0,0,1-.79-3.7,8,8,0,0,1,.54-3.22,15.81,15.81,0,0,1,1.68-3.15L215.94,74,194,42.05a12.35,12.35,0,0,1-1.65-3.26,11.06,11.06,0,0,1-.57-3.4,8.78,8.78,0,0,1,.76-3.6,9.32,9.32,0,0,1,2.07-3,10.63,10.63,0,0,1,3.09-2.08,8.84,8.84,0,0,1,3.69-.79,10.28,10.28,0,0,1,3.83.86,7.17,7.17,0,0,1,3.05,2.51l19.36,27.32,19.43-27.32a8,8,0,0,1,3-2.51,8.83,8.83,0,0,1,3.77-.86,9,9,0,0,1,3.76.79,10.06,10.06,0,0,1,3.05,2.08,9.31,9.31,0,0,1,2,3,9.43,9.43,0,0,1,.71,3.6,11.17,11.17,0,0,1-.54,3.44,11.05,11.05,0,0,1-1.61,3.22l-22,31.9,21.94,30.84A11.33,11.33,0,0,1,262.8,108a11.48,11.48,0,0,1,.53,3.37,8.59,8.59,0,0,1-.79,3.65,9,9,0,0,1-2.15,3,11.06,11.06,0,0,1-3.12,2,9.45,9.45,0,0,1-3.76.75,7.36,7.36,0,0,1-3.66-.79,8.27,8.27,0,0,1-2.94-2.51Z"/><path class="cls-1" d="M187.52,85.07a10.4,10.4,0,0,1-.69,3.55,11.78,11.78,0,0,1-2,3.1,8.56,8.56,0,0,1-3,2.16,7.42,7.42,0,0,1-3.37.78,2.32,2.32,0,0,1-.78.09H157.38A4,4,0,0,1,154.53,93a11.42,11.42,0,0,1-2-4.4,23.64,23.64,0,0,1-.35-4.15,22.87,22.87,0,0,1,.52-3.71,13,13,0,0,1,1.3-2.94,6,6,0,0,1,1.64-1.9,4.41,4.41,0,0,1,2.16-.78h5.53L158,61.41h-.09l-9.41-24.62L139,61.41l-5.36,13.73h6.22a4.41,4.41,0,0,1,2.16.78,6,6,0,0,1,1.64,1.9,13,13,0,0,1,1.3,2.94,22.87,22.87,0,0,1,.52,3.71,18.13,18.13,0,0,1-.43,4.15,10.3,10.3,0,0,1-1.91,4.4,4,4,0,0,1-2.84,1.73H119.2a8.27,8.27,0,0,1-3.89-.87,9.85,9.85,0,0,1-3.11-2.16,10,10,0,0,1-2-3.1,10.85,10.85,0,0,1-.69-3.63,9.39,9.39,0,0,1,.77-3.72L139,7a9,9,0,0,1,2-3.72A10.79,10.79,0,0,1,144.59.69L145,.6A6,6,0,0,1,147.1.09,11.73,11.73,0,0,1,148.74,0a13.85,13.85,0,0,1,1.81.17c.61.18,1.13.35,1.73.52l.17.09a3.94,3.94,0,0,1,1.82,1c.69.61,1.21,1.13,1.64,1.47l.34.35A6.38,6.38,0,0,1,157.55,6l.34.78,28.85,74.53A9.64,9.64,0,0,1,187.52,85.07Z"/><path class="cls-1" d="M178.45,94.66v.09h-.78A2.32,2.32,0,0,0,178.45,94.66Z"/></g></g></svg>